<svg xmlns="http://www.w3.org/2000/svg" xmlns:xlink="http://www.w3.org/1999/xlink" width="500" zoomAndPan="magnify" viewBox="0 0 375 374.999991" height="500" preserveAspectRatio="xMidYMid meet" version="1.0"><defs><clipPath id="6ca8819e9a"><path d="M 117 60.1875 L 127 60.1875 L 127 86 L 117 86 Z M 117 60.1875 " clip-rule="nonzero"/></clipPath><clipPath id="4db3111039"><path d="M 150 60.1875 L 160 60.1875 L 160 86 L 150 86 Z M 150 60.1875 " clip-rule="nonzero"/></clipPath><clipPath id="f64952578b"><path d="M 182 60.1875 L 192 60.1875 L 192 86 L 182 86 Z M 182 60.1875 " clip-rule="nonzero"/></clipPath><clipPath id="244beaf9ce"><path d="M 214 60.1875 L 225 60.1875 L 225 86 L 214 86 Z M 214 60.1875 " clip-rule="nonzero"/></clipPath><clipPath id="c12d218ec3"><path d="M 247 60.1875 L 257 60.1875 L 257 86 L 247 86 Z M 247 60.1875 " clip-rule="nonzero"/></clipPath><clipPath id="21d4bc54b6"><path d="M 293 112 L 318.75 112 L 318.75 123 L 293 123 Z M 293 112 " clip-rule="nonzero"/></clipPath><clipPath id="5d47f47b00"><path d="M 293 145 L 318.75 145 L 318.75 155 L 293 155 Z M 293 145 " clip-rule="nonzero"/></clipPath><clipPath id="5d3c2606da"><path d="M 293 177 L 318.75 177 L 318.75 188 L 293 188 Z M 293 177 " clip-rule="nonzero"/></clipPath><clipPath id="206718fbe0"><path d="M 293 210 L 318.75 210 L 318.75 220 L 293 220 Z M 293 210 " clip-rule="nonzero"/></clipPath><clipPath id="930a4c2c48"><path d="M 293 242 L 318.75 242 L 318.75 253 L 293 253 Z M 293 242 " clip-rule="nonzero"/></clipPath><clipPath id="1215803501"><path d="M 56.25 112 L 82 112 L 82 123 L 56.25 123 Z M 56.25 112 " clip-rule="nonzero"/></clipPath><clipPath id="9195dcfc91"><path d="M 56.25 145 L 82 145 L 82 155 L 56.25 155 Z M 56.25 145 " clip-rule="nonzero"/></clipPath><clipPath id="38034542ff"><path d="M 56.25 177 L 82 177 L 82 188 L 56.25 188 Z M 56.25 177 " clip-rule="nonzero"/></clipPath><clipPath id="67c0afb25b"><path d="M 56.25 210 L 82 210 L 82 220 L 56.25 220 Z M 56.25 210 " clip-rule="nonzero"/></clipPath><clipPath id="fba72fa754"><path d="M 56.25 242 L 82 242 L 82 253 L 56.25 253 Z M 56.25 242 " clip-rule="nonzero"/></clipPath><clipPath id="f7979c131d"><path d="M 117 289 L 127 289 L 127 315.1875 L 117 315.1875 Z M 117 289 " clip-rule="nonzero"/></clipPath><clipPath id="de6da0c716"><path d="M 150 289 L 160 289 L 160 315.1875 L 150 315.1875 Z M 150 289 " clip-rule="nonzero"/></clipPath><clipPath id="66ac468cf9"><path d="M 182 289 L 192 289 L 192 315.1875 L 182 315.1875 Z M 182 289 " clip-rule="nonzero"/></clipPath><clipPath id="10d4a37d9b"><path d="M 214 289 L 225 289 L 225 315.1875 L 214 315.1875 Z M 214 289 " clip-rule="nonzero"/></clipPath><clipPath id="f658e53e00"><path d="M 247 289 L 257 289 L 257 315.1875 L 247 315.1875 Z M 247 289 " clip-rule="nonzero"/></clipPath><clipPath id="a6c9958ae3"><path d="M 96.292969 96.292969 L 279.292969 96.292969 L 279.292969 279.292969 L 96.292969 279.292969 Z M 96.292969 96.292969 " clip-rule="nonzero"/></clipPath><clipPath id="58ac24953c"><path d="M 123.285156 96.292969 L 252.300781 96.292969 C 267.207031 96.292969 279.292969 108.378906 279.292969 123.285156 L 279.292969 252.300781 C 279.292969 267.207031 267.207031 279.292969 252.300781 279.292969 L 123.285156 279.292969 C 108.378906 279.292969 96.292969 267.207031 96.292969 252.300781 L 96.292969 123.285156 C 96.292969 108.378906 108.378906 96.292969 123.285156 96.292969 Z M 123.285156 96.292969 " clip-rule="nonzero"/></clipPath></defs><rect x="-37.5" width="450" fill="#ffffff" y="-37.499999" height="449.999989" fill-opacity="1"/><rect x="-37.5" width="450" fill="#ffffff" y="-37.499999" height="449.999989" fill-opacity="1"/><path fill="#4b4b4b" d="M 251.503906 279.90625 L 123.863281 279.90625 C 108.292969 279.90625 95.578125 267.214844 95.578125 251.582031 L 95.578125 123.75 C 95.578125 108.160156 108.253906 95.46875 123.863281 95.46875 L 251.503906 95.46875 C 267.074219 95.46875 279.746094 108.160156 279.746094 123.75 L 279.746094 251.582031 C 279.746094 267.214844 267.074219 279.90625 251.503906 279.90625 Z M 123.863281 104.773438 C 113.429688 104.773438 104.910156 113.304688 104.910156 123.75 L 104.910156 251.582031 C 104.910156 262.03125 113.429688 270.5625 123.863281 270.5625 L 251.503906 270.5625 C 261.9375 270.5625 270.457031 262.03125 270.457031 251.582031 L 270.457031 123.75 C 270.457031 113.304688 261.9375 104.773438 251.503906 104.773438 Z M 123.863281 104.773438 " fill-opacity="1" fill-rule="nonzero"/><path fill="#4b4b4b" d="M 206.1875 223.339844 L 188.90625 223.339844 L 184.546875 211.257812 L 154.019531 211.257812 L 149.535156 223.339844 L 132.257812 223.339844 L 159.765625 151.996094 L 178.757812 151.996094 Z M 180.347656 197.910156 L 169.222656 167.21875 L 158.136719 197.910156 Z M 180.347656 197.910156 " fill-opacity="1" fill-rule="nonzero"/><path fill="#4b4b4b" d="M 212.828125 151.996094 L 227.988281 151.996094 L 227.988281 223.339844 L 212.828125 223.339844 Z M 212.828125 151.996094 " fill-opacity="1" fill-rule="nonzero"/><g clip-path="url(#6ca8819e9a)"><path fill="#4b4b4b" d="M 122.273438 85.507812 C 119.703125 85.507812 117.625 83.425781 117.625 80.855469 L 117.625 64.9375 C 117.625 62.367188 119.703125 60.285156 122.273438 60.285156 C 124.839844 60.285156 126.917969 62.367188 126.917969 64.9375 L 126.917969 80.855469 C 126.917969 83.425781 124.839844 85.507812 122.273438 85.507812 Z M 122.273438 85.507812 " fill-opacity="1" fill-rule="nonzero"/></g><g clip-path="url(#4db3111039)"><path fill="#4b4b4b" d="M 154.714844 85.507812 C 152.144531 85.507812 150.066406 83.425781 150.066406 80.855469 L 150.066406 64.9375 C 150.066406 62.367188 152.144531 60.285156 154.714844 60.285156 C 157.28125 60.285156 159.359375 62.367188 159.359375 64.9375 L 159.359375 80.855469 C 159.359375 83.425781 157.28125 85.507812 154.714844 85.507812 Z M 154.714844 85.507812 " fill-opacity="1" fill-rule="nonzero"/></g><g clip-path="url(#f64952578b)"><path fill="#4b4b4b" d="M 187.152344 85.507812 C 184.585938 85.507812 182.507812 83.425781 182.507812 80.855469 L 182.507812 64.9375 C 182.507812 62.367188 184.585938 60.285156 187.152344 60.285156 C 189.722656 60.285156 191.800781 62.367188 191.800781 64.9375 L 191.800781 80.855469 C 191.839844 83.425781 189.722656 85.507812 187.152344 85.507812 Z M 187.152344 85.507812 " fill-opacity="1" fill-rule="nonzero"/></g><g clip-path="url(#244beaf9ce)"><path fill="#4b4b4b" d="M 219.636719 85.507812 C 217.066406 85.507812 214.988281 83.425781 214.988281 80.855469 L 214.988281 64.9375 C 214.988281 62.367188 217.066406 60.285156 219.636719 60.285156 C 222.203125 60.285156 224.28125 62.367188 224.28125 64.9375 L 224.28125 80.855469 C 224.28125 83.425781 222.203125 85.507812 219.636719 85.507812 Z M 219.636719 85.507812 " fill-opacity="1" fill-rule="nonzero"/></g><g clip-path="url(#c12d218ec3)"><path fill="#4b4b4b" d="M 252.074219 85.507812 C 249.507812 85.507812 247.429688 83.425781 247.429688 80.855469 L 247.429688 64.9375 C 247.429688 62.367188 249.507812 60.285156 252.074219 60.285156 C 254.644531 60.285156 256.722656 62.367188 256.722656 64.9375 L 256.722656 80.855469 C 256.722656 83.425781 254.644531 85.507812 252.074219 85.507812 Z M 252.074219 85.507812 " fill-opacity="1" fill-rule="nonzero"/></g><g clip-path="url(#21d4bc54b6)"><path fill="#4b4b4b" d="M 314.0625 122.199219 L 298.167969 122.199219 C 295.601562 122.199219 293.523438 120.117188 293.523438 117.546875 C 293.523438 114.976562 295.601562 112.894531 298.167969 112.894531 L 314.0625 112.894531 C 316.628906 112.894531 318.710938 114.976562 318.710938 117.546875 C 318.710938 120.117188 316.628906 122.199219 314.0625 122.199219 Z M 314.0625 122.199219 " fill-opacity="1" fill-rule="nonzero"/></g><g clip-path="url(#5d47f47b00)"><path fill="#4b4b4b" d="M 314.0625 154.6875 L 298.167969 154.6875 C 295.601562 154.6875 293.523438 152.605469 293.523438 150.035156 C 293.523438 147.464844 295.601562 145.382812 298.167969 145.382812 L 314.0625 145.382812 C 316.628906 145.382812 318.710938 147.464844 318.710938 150.035156 C 318.75 152.605469 316.628906 154.6875 314.0625 154.6875 Z M 314.0625 154.6875 " fill-opacity="1" fill-rule="nonzero"/></g><g clip-path="url(#5d3c2606da)"><path fill="#4b4b4b" d="M 314.0625 187.21875 L 298.167969 187.21875 C 295.601562 187.21875 293.523438 185.136719 293.523438 182.566406 C 293.523438 179.992188 295.601562 177.914062 298.167969 177.914062 L 314.0625 177.914062 C 316.628906 177.914062 318.710938 179.992188 318.710938 182.566406 C 318.75 185.136719 316.628906 187.21875 314.0625 187.21875 Z M 314.0625 187.21875 " fill-opacity="1" fill-rule="nonzero"/></g><g clip-path="url(#206718fbe0)"><path fill="#4b4b4b" d="M 314.0625 219.707031 L 298.167969 219.707031 C 295.601562 219.707031 293.523438 217.625 293.523438 215.054688 C 293.523438 212.480469 295.601562 210.402344 298.167969 210.402344 L 314.0625 210.402344 C 316.628906 210.402344 318.710938 212.480469 318.710938 215.054688 C 318.75 217.625 316.628906 219.707031 314.0625 219.707031 Z M 314.0625 219.707031 " fill-opacity="1" fill-rule="nonzero"/></g><g clip-path="url(#930a4c2c48)"><path fill="#4b4b4b" d="M 314.0625 252.234375 L 298.167969 252.234375 C 295.601562 252.234375 293.523438 250.152344 293.523438 247.582031 C 293.523438 245.011719 295.601562 242.929688 298.167969 242.929688 L 314.0625 242.929688 C 316.628906 242.929688 318.710938 245.011719 318.710938 247.582031 C 318.75 250.113281 316.628906 252.234375 314.0625 252.234375 Z M 314.0625 252.234375 " fill-opacity="1" fill-rule="nonzero"/></g><g clip-path="url(#1215803501)"><path fill="#4b4b4b" d="M 76.789062 122.199219 L 60.894531 122.199219 C 58.328125 122.199219 56.25 120.117188 56.25 117.546875 C 56.25 114.976562 58.328125 112.894531 60.894531 112.894531 L 76.789062 112.894531 C 79.359375 112.894531 81.4375 114.976562 81.4375 117.546875 C 81.4375 120.117188 79.359375 122.199219 76.789062 122.199219 Z M 76.789062 122.199219 " fill-opacity="1" fill-rule="nonzero"/></g><g clip-path="url(#9195dcfc91)"><path fill="#4b4b4b" d="M 76.789062 154.6875 L 60.894531 154.6875 C 58.328125 154.6875 56.25 152.605469 56.25 150.035156 C 56.25 147.464844 58.328125 145.382812 60.894531 145.382812 L 76.789062 145.382812 C 79.359375 145.382812 81.4375 147.464844 81.4375 150.035156 C 81.4375 152.605469 79.359375 154.6875 76.789062 154.6875 Z M 76.789062 154.6875 " fill-opacity="1" fill-rule="nonzero"/></g><g clip-path="url(#38034542ff)"><path fill="#4b4b4b" d="M 76.789062 187.21875 L 60.894531 187.21875 C 58.328125 187.21875 56.25 185.136719 56.25 182.566406 C 56.25 179.992188 58.328125 177.914062 60.894531 177.914062 L 76.789062 177.914062 C 79.359375 177.914062 81.4375 179.992188 81.4375 182.566406 C 81.4375 185.136719 79.359375 187.21875 76.789062 187.21875 Z M 76.789062 187.21875 " fill-opacity="1" fill-rule="nonzero"/></g><g clip-path="url(#67c0afb25b)"><path fill="#4b4b4b" d="M 76.789062 219.707031 L 60.894531 219.707031 C 58.328125 219.707031 56.25 217.625 56.25 215.054688 C 56.25 212.480469 58.328125 210.402344 60.894531 210.402344 L 76.789062 210.402344 C 79.359375 210.402344 81.4375 212.480469 81.4375 215.054688 C 81.4375 217.625 79.359375 219.707031 76.789062 219.707031 Z M 76.789062 219.707031 " fill-opacity="1" fill-rule="nonzero"/></g><g clip-path="url(#fba72fa754)"><path fill="#4b4b4b" d="M 76.789062 252.234375 L 60.894531 252.234375 C 58.328125 252.234375 56.25 250.152344 56.25 247.582031 C 56.25 245.011719 58.328125 242.929688 60.894531 242.929688 L 76.789062 242.929688 C 79.359375 242.929688 81.4375 245.011719 81.4375 247.582031 C 81.4375 250.113281 79.359375 252.234375 76.789062 252.234375 Z M 76.789062 252.234375 " fill-opacity="1" fill-rule="nonzero"/></g><g clip-path="url(#f7979c131d)"><path fill="#4b4b4b" d="M 122.273438 315.089844 C 119.703125 315.089844 117.625 313.007812 117.625 310.4375 L 117.625 294.519531 C 117.625 291.949219 119.703125 289.867188 122.273438 289.867188 C 124.839844 289.867188 126.917969 291.949219 126.917969 294.519531 L 126.917969 310.4375 C 126.917969 313.007812 124.839844 315.089844 122.273438 315.089844 Z M 122.273438 315.089844 " fill-opacity="1" fill-rule="nonzero"/></g><g clip-path="url(#de6da0c716)"><path fill="#4b4b4b" d="M 154.714844 315.089844 C 152.144531 315.089844 150.066406 313.007812 150.066406 310.4375 L 150.066406 294.519531 C 150.066406 291.949219 152.144531 289.867188 154.714844 289.867188 C 157.28125 289.867188 159.359375 291.949219 159.359375 294.519531 L 159.359375 310.4375 C 159.359375 313.007812 157.28125 315.089844 154.714844 315.089844 Z M 154.714844 315.089844 " fill-opacity="1" fill-rule="nonzero"/></g><g clip-path="url(#66ac468cf9)"><path fill="#4b4b4b" d="M 187.152344 315.089844 C 184.585938 315.089844 182.507812 313.007812 182.507812 310.4375 L 182.507812 294.519531 C 182.507812 291.949219 184.585938 289.867188 187.152344 289.867188 C 189.722656 289.867188 191.800781 291.949219 191.800781 294.519531 L 191.800781 310.4375 C 191.839844 313.007812 189.722656 315.089844 187.152344 315.089844 Z M 187.152344 315.089844 " fill-opacity="1" fill-rule="nonzero"/></g><g clip-path="url(#10d4a37d9b)"><path fill="#4b4b4b" d="M 219.636719 315.089844 C 217.066406 315.089844 214.988281 313.007812 214.988281 310.4375 L 214.988281 294.519531 C 214.988281 291.949219 217.066406 289.867188 219.636719 289.867188 C 222.203125 289.867188 224.28125 291.949219 224.28125 294.519531 L 224.28125 310.4375 C 224.28125 313.007812 222.203125 315.089844 219.636719 315.089844 Z M 219.636719 315.089844 " fill-opacity="1" fill-rule="nonzero"/></g><g clip-path="url(#f658e53e00)"><path fill="#4b4b4b" d="M 252.074219 315.089844 C 249.507812 315.089844 247.429688 313.007812 247.429688 310.4375 L 247.429688 294.519531 C 247.429688 291.949219 249.507812 289.867188 252.074219 289.867188 C 254.644531 289.867188 256.722656 291.949219 256.722656 294.519531 L 256.722656 310.4375 C 256.722656 313.007812 254.644531 315.089844 252.074219 315.089844 Z M 252.074219 315.089844 " fill-opacity="1" fill-rule="nonzero"/></g><g clip-path="url(#a6c9958ae3)"><g clip-path="url(#58ac24953c)"><path stroke-linecap="butt" transform="matrix(0.749808, 0, 0, 0.749808, 96.292373, 96.292369)" fill="none" stroke-linejoin="miter" d="M 35.999597 0.000800036 L 208.064495 0.000800036 C 227.944587 0.000800036 244.063298 16.119511 244.063298 35.999603 L 244.063298 208.064501 C 244.063298 227.944593 227.944587 244.063304 208.064495 244.063304 L 35.999597 244.063304 C 16.119505 244.063304 0.000794034 227.944593 0.000794034 208.064501 L 0.000794034 35.999603 C 0.000794034 16.119511 16.119505 0.000800036 35.999597 0.000800036 Z M 35.999597 0.000800036 " stroke="#ff3131" stroke-width="24" stroke-opacity="1" stroke-miterlimit="4"/></g></g></svg>