<svg xmlns="http://www.w3.org/2000/svg" xmlns:xlink="http://www.w3.org/1999/xlink" width="500" zoomAndPan="magnify" viewBox="0 0 375 374.999991" height="500" preserveAspectRatio="xMidYMid meet" version="1.0"><defs><clipPath id="2e4ab771a7"><path d="M 56.25 56.25 L 318.75 56.25 L 318.75 318.75 L 56.25 318.75 Z M 56.25 56.25 " clip-rule="nonzero"/></clipPath></defs><rect x="-37.5" width="450" fill="#ffffff" y="-37.499999" height="449.999989" fill-opacity="1"/><rect x="-37.5" width="450" fill="#ffffff" y="-37.499999" height="449.999989" fill-opacity="1"/><g clip-path="url(#2e4ab771a7)"><path fill="#4b4b4b" d="M 280.308594 94.691406 C 255.519531 69.902344 222.558594 56.25 187.5 56.25 C 152.441406 56.25 119.480469 69.902344 94.691406 94.691406 C 69.902344 119.480469 56.25 152.441406 56.25 187.5 C 56.25 222.558594 69.902344 255.519531 94.691406 280.308594 C 119.480469 305.097656 152.441406 318.75 187.5 318.75 C 222.558594 318.75 255.519531 305.097656 280.308594 280.308594 C 305.097656 255.519531 318.75 222.558594 318.75 187.5 C 318.75 152.441406 305.097656 119.480469 280.308594 94.691406 Z M 70.765625 187.5 C 70.765625 172.882812 73.476562 158.886719 78.40625 145.980469 L 125.613281 145.980469 C 123.496094 159.1875 122.390625 173.171875 122.390625 187.5 C 122.390625 201.347656 123.421875 214.875 125.402344 227.691406 L 77.898438 227.691406 C 73.285156 215.15625 70.765625 201.617188 70.765625 187.5 Z M 136.910156 187.5 C 136.910156 173.082031 138.078125 159.074219 140.316406 145.980469 L 180.242188 145.980469 L 180.242188 227.691406 L 140.089844 227.691406 C 138 214.980469 136.910156 201.433594 136.910156 187.5 Z M 221.828125 102.894531 C 225.808594 111.425781 229.109375 121.050781 231.675781 131.464844 L 194.757812 131.464844 L 194.757812 72.113281 C 204.601562 75.722656 214.175781 86.496094 221.828125 102.894531 Z M 180.242188 72.113281 L 180.242188 131.464844 L 143.324219 131.464844 C 145.890625 121.050781 149.191406 111.425781 153.171875 102.894531 C 160.824219 86.496094 170.398438 75.722656 180.242188 72.113281 Z M 180.242188 242.207031 L 180.242188 302.886719 C 170.398438 299.277344 160.824219 288.503906 153.171875 272.105469 C 149.023438 263.210938 145.613281 253.128906 143.003906 242.207031 Z M 194.757812 302.886719 L 194.757812 242.207031 L 231.996094 242.207031 C 229.386719 253.128906 225.976562 263.210938 221.828125 272.105469 C 214.175781 288.503906 204.601562 299.277344 194.757812 302.886719 Z M 194.757812 227.691406 L 194.757812 145.980469 L 234.683594 145.980469 C 236.921875 159.074219 238.089844 173.082031 238.089844 187.5 C 238.089844 201.433594 237 214.980469 234.910156 227.691406 Z M 249.386719 145.980469 L 296.59375 145.980469 C 301.523438 158.886719 304.234375 172.882812 304.234375 187.5 C 304.234375 201.617188 301.714844 215.15625 297.101562 227.691406 L 249.597656 227.691406 C 251.578125 214.875 252.609375 201.347656 252.609375 187.5 C 252.609375 173.171875 251.503906 159.1875 249.386719 145.980469 Z M 289.875 131.464844 L 246.578125 131.464844 C 243.683594 118.785156 239.792969 107.066406 234.984375 96.753906 C 231.253906 88.761719 227.082031 81.871094 222.566406 76.152344 C 251.453125 85.269531 275.519531 105.335938 289.875 131.464844 Z M 152.433594 76.152344 C 147.917969 81.871094 143.746094 88.761719 140.015625 96.753906 C 135.207031 107.066406 131.316406 118.785156 128.421875 131.464844 L 85.125 131.464844 C 99.480469 105.335938 123.546875 85.269531 152.433594 76.152344 Z M 84.40625 242.207031 L 128.117188 242.207031 C 131.039062 255.394531 135.039062 267.574219 140.015625 278.246094 C 143.746094 286.238281 147.917969 293.128906 152.433594 298.847656 C 123.0625 289.578125 98.671875 268.980469 84.40625 242.207031 Z M 222.566406 298.847656 C 227.082031 293.128906 231.253906 286.238281 234.984375 278.246094 C 239.960938 267.574219 243.960938 255.394531 246.882812 242.207031 L 290.59375 242.207031 C 276.328125 268.980469 251.9375 289.578125 222.566406 298.847656 Z M 222.566406 298.847656 " fill-opacity="1" fill-rule="nonzero"/></g></svg>