<svg xmlns="http://www.w3.org/2000/svg" xmlns:xlink="http://www.w3.org/1999/xlink" width="500" zoomAndPan="magnify" viewBox="0 0 375 374.999991" height="500" preserveAspectRatio="xMidYMid meet" version="1.0"><defs><clipPath id="9f832c50db"><path d="M 112.40625 184.199219 L 264.949219 184.199219 L 264.949219 275.777344 L 112.40625 275.777344 Z M 112.40625 184.199219 " clip-rule="nonzero"/></clipPath><clipPath id="3f887467e5"><path d="M 233.832031 170.539062 L 337.5 170.539062 L 337.5 244 L 233.832031 244 Z M 233.832031 170.539062 " clip-rule="nonzero"/></clipPath></defs><rect x="-37.5" width="450" fill="#ffffff" y="-37.499999" height="449.999989" fill-opacity="1"/><rect x="-37.5" width="450" fill="#ffffff" y="-37.499999" height="449.999989" fill-opacity="1"/><path fill="#4b4b4b" d="M 144.691406 142.953125 C 144.691406 118.789062 164.28125 99.203125 188.441406 99.203125 C 212.605469 99.203125 232.195312 118.789062 232.195312 142.953125 C 232.195312 167.117188 212.605469 186.707031 188.441406 186.707031 C 164.28125 186.707031 144.691406 167.117188 144.691406 142.953125 " fill-opacity="1" fill-rule="nonzero"/><g clip-path="url(#9f832c50db)"><path fill="#4b4b4b" d="M 263.636719 251.855469 L 257.398438 227.808594 C 252.3125 208.210938 238.589844 192.667969 220.949219 184.820312 C 211.972656 191.800781 200.699219 195.972656 188.441406 195.972656 C 176.191406 195.972656 164.914062 191.800781 155.9375 184.820312 C 138.292969 192.667969 124.570312 208.210938 119.488281 227.808594 L 113.25 251.855469 C 110.109375 263.960938 119.246094 275.777344 131.757812 275.777344 L 245.128906 275.777344 C 257.640625 275.777344 266.78125 263.960938 263.636719 251.855469 " fill-opacity="1" fill-rule="nonzero"/></g><path fill="#4b4b4b" d="M 65.214844 137.351562 C 65.214844 118.011719 80.894531 102.332031 100.234375 102.332031 C 119.578125 102.332031 135.253906 118.011719 135.253906 137.351562 C 135.253906 156.691406 119.578125 172.371094 100.234375 172.371094 C 80.894531 172.371094 65.214844 156.691406 65.214844 137.351562 " fill-opacity="1" fill-rule="nonzero"/><path fill="#4b4b4b" d="M 111.460938 227.484375 C 116.328125 208.738281 127.925781 193.15625 143.261719 183.050781 C 138.484375 177.894531 132.699219 173.726562 126.253906 170.859375 C 119.066406 176.449219 110.042969 179.789062 100.234375 179.789062 C 90.425781 179.789062 81.402344 176.449219 74.214844 170.859375 C 60.097656 177.140625 49.113281 189.582031 45.042969 205.265625 L 40.046875 224.515625 C 37.535156 234.207031 44.851562 243.664062 54.859375 243.664062 L 107.265625 243.664062 L 111.460938 227.484375 " fill-opacity="1" fill-rule="nonzero"/><path fill="#4b4b4b" d="M 311.882812 137.351562 C 311.882812 118.011719 296.207031 102.332031 276.863281 102.332031 C 257.523438 102.332031 241.84375 118.011719 241.84375 137.351562 C 241.84375 156.691406 257.523438 172.371094 276.863281 172.371094 C 296.207031 172.371094 311.882812 156.691406 311.882812 137.351562 " fill-opacity="1" fill-rule="nonzero"/><g clip-path="url(#3f887467e5)"><path fill="#4b4b4b" d="M 265.636719 227.484375 C 260.773438 208.738281 249.171875 193.15625 233.835938 183.050781 C 238.617188 177.894531 244.402344 173.726562 250.847656 170.859375 C 258.035156 176.449219 267.054688 179.789062 276.863281 179.789062 C 286.675781 179.789062 295.695312 176.449219 302.882812 170.859375 C 317.003906 177.140625 327.988281 189.582031 332.058594 205.265625 L 337.054688 224.515625 C 339.566406 234.207031 332.25 243.664062 322.238281 243.664062 L 269.835938 243.664062 L 265.636719 227.484375 " fill-opacity="1" fill-rule="nonzero"/></g></svg>